<svg viewBox="0 0 141 44" xmlns="http://www.w3.org/2000/svg" fill-rule="evenodd" clip-rule="evenodd"><path fill="none" d="M0 0h141v43.5h-141z"/><path d="M137.729 21.135c.043 1.989.267 5.833.266 7.226-.001 1.46-.444 5.637-.482 5.837-.037.194-.138 2.045-.241 2.853-.478 3.785-6.479 3.08-6.772 3.074-1.019-.02-3.146-.151-3.758-.129-1.35.049-11.689-.827-17.18-.631-3.658.131-24.289.613-26.987.484-2.866-.138-14.916.367-17.913.29-3.218-.082-17.466-.798-20.961-.835-3.805-.04-17.557.78-20.153.765-3.989-.025-10.736.063-13.048.056-.638-.002-5.934.576-6.926-3.104-.19-.707-.244-3.438-.199-4.021.042-.542.277-1.121.277-1.573l-.17-5.081c0-.354-.184-8.079-.206-9.731-.014-1.147.047-5.367.099-6.115.037-.535-.296-5.056.905-6.201.611-.583 2.015-1.099 3.541-.978.46.037 1.492.053 2.679.054 2.217.002 13.594.457 14.036.468.832.019 10.993-.611 17.191-.708 9.424-.147 19.749.893 30.175.872 3.57-.007 8.544-.699 10.8-.403.946.123 18.826-.438 19.068-.571.214-.119 8.511.117 11.426.182 1.636.036 3.536.338 5.045.314 1.763-.028 3.737-.304 6.075-.338 2.709-.04 5.703.166 6.184.184 1.322.05 2.561-.035 2.674-.054.8-.131 3.171.118 3.543 1.457.221.795.609 2.195.796 4.214.046.494.23.965.258 1.526.148 1.316.266 3.336.218 4.945-.045 1.565-.128 1.884-.189 2.55-.009 1.039-.037 2.093-.071 3.122z" fill="#ee234f"/></svg>