<svg viewBox="0 0 141 44" xmlns="http://www.w3.org/2000/svg" fill-rule="evenodd" clip-rule="evenodd"><path fill="none" d="M0 0h141v43.5h-141z"/><path d="M137.999 10.507c0-1.53-1.356-4.208-4.69-5.931-.9-.465-1.879-.607-2.809-.826-1.904-.448-3.796-.66-5.746-.716-6.051-.176-18.501.387-27.752.488-2.614.028-6.151.669-9.367.703-11.588.123-25.478-.353-35.061-.404-1.965-.011-3.076-.039-5.13-.272-1.246-.141-17.592-.433-23.894-.417-3.844.009-9.03.444-13.05.618-2.408.104-4.474.329-5.37.783-2.191 1.11-1.532 2.324-1.532 2.754 0 .798-.365 2.171-.37 3.22-.006 1.324.37 3.662.362 5.617-.007 1.926-.513 6.04-.558 8.06-.123 5.52.146 8.586.196 9.091.148 1.483-.364 2.865 2.036 4.831 1.063.872 2.648 1.002 4.738 1.241 4.299.489 6.458.156 9.682.337 3.476.194 19.958.458 22.084.421 2.434-.042 5.488-.558 8.243-.699 2.923-.15 25.17 1.138 28.564 1.093 6.288-.083 11.65-.96 17.381-1.152 5.664-.19 20.275.143 24.732.122 3.247-.015 7.57-.139 9.74-.122 1.095.008 3.277.222 3.277.222.799 0 3.914-.446 3.866-2.745-.033-1.536.458-2.583.428-3.549-.027-.839-.582-2.048-.452-4.383.042-.768-.146-4.049 0-7.654.149-3.703.452-7.804.452-10.731z" fill="#b01134"/></svg>